<?xml version="1.0" standalone="no"?>
<!DOCTYPE svg PUBLIC "-//W3C//DTD SVG 20010904//EN"
 "http://www.w3.org/TR/2001/REC-SVG-20010904/DTD/svg10.dtd">
<svg version="1.0" xmlns="http://www.w3.org/2000/svg"
 width="24.000000pt" height="24.000000pt" viewBox="0 0 24.000000 24.000000"
 preserveAspectRatio="xMidYMid meet">

<g transform="translate(0.000000,24.000000) scale(0.100000,-0.100000)"
fill="#000000" stroke="none">
<path d="M70 223 c-49 -25 -77 -83 -63 -133 5 -21 6 -47 1 -60 -11 -29 -7 -33
22 -22 13 5 39 4 60 -1 52 -14 108 14 134 67 17 36 18 43 5 79 -25 71 -96 102
-159 70z m121 -32 c42 -42 41 -101 -2 -143 -29 -29 -33 -30 -91 -24 -34 3 -63
8 -65 9 -1 2 -6 31 -9 65 -6 58 -5 62 24 91 42 43 101 44 143 2z"/>
</g>
</svg>
