<svg width="16" height="16" viewBox="0 0 16 16" fill="none" xmlns="http://www.w3.org/2000/svg">
<g clip-path="url(#clip0_4430_4728)">
<path d="M13.3882 10.7732H15.4776C15.7649 10.7732 16 10.5393 16 10.2508L16 0.848298C16 0.560016 15.7659 0.326015 15.4776 0.326015H13.3882C13.0999 0.326015 12.8658 0.560047 12.8658 0.848298L12.8658 10.2508C12.8658 10.5393 13.101 10.7732 13.3882 10.7732Z" fill="#F44747"/>
<path d="M1.30439 10.7732C1.38852 10.7875 5.3275 10.7732 5.3275 10.7732L4.77731 12.2742C4.39768 13.3109 4.64346 14.8938 5.69681 15.4566C6.03978 15.6398 6.51897 15.7319 6.90531 15.6346C7.12687 15.5789 7.32159 15.4322 7.43765 15.2357C7.57112 15.0096 7.55734 14.7458 7.60487 14.4952C7.72541 13.8595 8.02578 13.2551 8.49094 12.8014C9.30194 12.0104 11.8213 9.72855 11.8213 9.72855L11.8213 1.37072L3.11524 1.37072C1.94049 1.37003 1.17061 2.68191 1.75002 3.70663C1.05936 4.14897 0.823144 5.08069 1.22764 5.79607C0.536956 6.23841 0.300768 7.17014 0.705269 7.88551C-0.486421 8.64873 -0.0880146 10.5377 1.30439 10.7732Z" fill="#F44747"/>
</g>
<defs>
<clipPath id="clip0_4430_4728">
<rect width="16" height="16" fill="white" transform="matrix(-1 0 0 -1 16 16)"/>
</clipPath>
</defs>
</svg>
