<svg width="16" height="16" viewBox="0 0 16 16" fill="none" xmlns="http://www.w3.org/2000/svg">
<g clip-path="url(#clip0_4430_4719)">
<path d="M2.61182 5.22681H0.522376C0.235125 5.22681 0 5.46074 0 5.74915V15.1517C0 15.44 0.234094 15.674 0.522376 15.674H2.61182C2.9001 15.674 3.13419 15.44 3.13419 15.1517V5.74915C3.13419 5.46074 2.89904 5.22681 2.61182 5.22681Z" fill="#00D33B"/>
<path d="M14.6956 5.22676C14.6115 5.21251 10.6725 5.22676 10.6725 5.22676L11.2227 3.72576C11.6023 2.68907 11.3565 1.10616 10.3032 0.54341C9.96022 0.36016 9.48103 0.268129 9.09469 0.365379C8.87313 0.421129 8.67841 0.567817 8.56235 0.764348C8.42888 0.99038 8.44266 1.25422 8.39513 1.50485C8.27459 2.14054 7.97422 2.74495 7.50906 3.1986C6.69806 3.98957 4.17871 6.27145 4.17871 6.27145V14.6293H12.8848C14.0595 14.63 14.8294 13.3181 14.25 12.2934C14.9406 11.851 15.1769 10.9193 14.7724 10.2039C15.463 9.76159 15.6992 8.82986 15.2947 8.11449C16.4864 7.35127 16.088 5.46226 14.6956 5.22676Z" fill="#00D33B"/>
</g>
<defs>
<clipPath id="clip0_4430_4719">
<rect width="16" height="16" fill="white"/>
</clipPath>
</defs>
</svg>
